<?xml version="1.0" encoding="utf-8"?>
<!-- Generator: Adobe Illustrator 21.0.2, SVG Export Plug-In . SVG Version: 6.00 Build 0)  -->
<svg version="1.1" id="Layer_1" xmlns="http://www.w3.org/2000/svg" xmlns:xlink="http://www.w3.org/1999/xlink" x="0px" y="0px"
	 viewBox="0 0 36.6 36.1" style="enable-background:new 0 0 36.6 36.1;" xml:space="preserve">
<style type="text/css">
	.st0{fill:#005508;}
	.st1{font-family:'MyriadPro-Regular';}
	.st2{font-size:3px;}
</style>
<title>Icons</title>
<path d="M35.2,1c-0.4-0.4-0.9-0.6-1.4-0.8C33.5,0.1,33.3,0.1,33,0h-0.5h-4.3c-2.9,0-5.7,0-8.5,0.1l-8.5,0.2L6.9,0.4H4.8H3.1
	c-0.2,0-0.5,0.1-0.7,0.2C0.9,0.9-0.1,2.3,0,3.8c0.1,1.3,0.9,2.4,2.1,2.8c0.3,0.1,0.7,0.1,1,0.1h0.7c0,0.1-0.1,0.1-0.1,0.1
	C3.5,7.2,3.4,7.6,3.3,8c0,0.2,0,0.4,0,0.5v0.7c0,1.3,0,2.6,0,3.9l-0.1,8c0,1.4,0.9,2.6,2.2,3.1c0.2,0.1,0.4,0.1,0.7,0.1
	c0.2,0,0.4,0,0.6,0h4h0.6C9.3,28,7,31.5,4.7,35c-0.2,0.3,1.3,1.3,1.6,1c1.6-1.7,2.4-4,3.5-6.1c0.9-1.5,2.2-2.8,2.6-4.6
	c0.2-0.4,0.3-0.8,0.3-1.2c1.9,0,3.8-0.1,5.7-0.2c1.2,0,2.6,0,3.9,0c-0.1,0-0.1,0.1-0.1,0.2c0.1,0.1,0.2,0.3,0.4,0.4l0,0
	c2.6,3.6,5,7.4,7.2,11.3c0.2,0.3,1.7-0.6,1.6-1c-0.9-2.2-2.6-3.9-3.9-5.8c-1-1.4-1.5-3.2-2.9-4.4c-0.2-0.3-0.4-0.6-0.7-0.8
	c1.8-0.1,3.6-0.3,5.3-0.7c0.8-0.2,0.5-0.9-0.5-0.9s-2.1,0.1-3.1,0.1h-0.1l-10.1,0.1h-5H7.9H6.6c-0.3,0-0.6,0-0.8-0.2
	C5.3,21.9,5,21.4,5,20.8v-2.5v-5v-5C4.9,7.7,5.2,7.1,5.7,6.7c0.2-0.1,0.4-0.2,0.7-0.2h5.1c2,0,4.1,0,6.1-0.1h10.3h1.9
	c0.1,0,0.3,0,0.4,0.1c0.5,0.2,0.9,0.6,1.1,1.2c0,0.1,0,0.3,0,0.4v4.4v5v3.1c0,0.1,0,0.3-0.1,0.4c-0.1,0.3-0.2,0.5-0.4,0.7
	c-0.5,0.3-0.8,0.8-1,1.3c0,0.3,0.2,0.5,0.5,0.6c0.6,0.1,1.3-0.1,1.7-0.5c0.5-0.4,0.8-0.9,1-1.5c0.1-0.3,0.1-0.6,0.2-0.9V20v-2.6
	c0-1.8,0-3.5,0-5.3v-4c0-0.1,0-0.3,0-0.4c0-0.2,0-0.3-0.1-0.5c-0.1-0.3-0.2-0.6-0.3-0.9c-0.2-0.3-0.4-0.6-0.7-0.9h0.5
	c0.7-0.2,0.4-0.9-0.4-0.9s-1.3,0-2,0.1c-0.2,0-0.4,0-0.6,0H27L16.4,4.8h-2H6.9H3.1c-0.9,0-1.6-0.7-1.6-1.6l0,0c0-0.5,0.3-1,0.7-1.3
	c0.2-0.1,0.5-0.1,0.7-0.1l0.3,0.4h0.9h4.7h9.4h9.3l4.7-0.1L32.8,2h0.3h0.2c0.2,0,0.5,0.1,0.7,0.3c0.4,0.4,0.7,0.9,0.7,1.4
	s-0.2,0.9-0.6,1.1C33.6,5,33.3,5.5,33.2,6c0,0.3,0.2,0.5,0.5,0.6c0.5,0.2,1.1,0.2,1.5-0.1C36,5.9,36.6,5,36.6,3.9
	C36.4,2.8,36,1.8,35.2,1z"/>
<path class="st0" d="M26,10.4c-1.4,1.2-2.7,2.4-3.9,3.8l-1.8,2l-0.9,1l-0.2,0.2l-0.1,0.1L19,17.7l-0.2-0.2l-0.6-0.3l-0.5-0.4l-1.1-1
	l-1.1-0.9l-0.7-0.5l-1-0.8l-1,0.9l-0.4,0.3l-0.2,0.4c-0.4,0.4-0.7,0.8-1,1.2c-0.9,0.6-1.5,1.5-1.7,2.5c0,0.3,0.5,0.8,0.6,0.6
	c0.2-0.2,0.4-0.4,0.6-0.7l0,0l1.8-1.7l1-0.9l0.2-0.2l0.1-0.1l0.1-0.1l0.2,0.1l0.6,0.5l1.3,1l3.1,2.4l4.3-4.3l3.8-3.8
	C27.8,11.2,26.5,10,26,10.4z"/>
<text transform="matrix(1 0 0 1 24.7394 10.3135)" class="st0 st1 st2">$</text>
</svg>
