<svg xmlns="http://www.w3.org/2000/svg" xmlns:xlink="http://www.w3.org/1999/xlink" viewBox="0 0 290.74 196.25"><defs><linearGradient id="linear-gradient" x1="97.21" y1="154.56" x2="11.12" y2="206.55" gradientUnits="userSpaceOnUse"><stop offset="0" stop-color="#808285"/><stop offset="1" stop-color="#939598"/></linearGradient></defs><title>tangram</title><g style="isolation:isolate"><g id="Layer_1" data-name="Layer 1"><polygon id="_Ritaglio_" data-name="&lt;Ritaglio&gt;" points="217.18 98.13 181.43 146.87 145.69 195.61 290.09 195.61 217.18 98.13" style="fill:#818386"/><polygon id="_Ritaglio_2" data-name="&lt;Ritaglio&gt;" points="217.18 98.13 181.43 146.87 145.69 195.61 290.09 195.61 217.18 98.13" style="fill:none;stroke:#231f20;stroke-linejoin:round;stroke-width:1.284523257866513px"/><polygon id="_Ritaglio_3" data-name="&lt;Ritaglio&gt;" points="74.2 98.13 1.28 195.61 145.69 195.61 109.94 146.87 74.2 98.13" style="fill:url(#linear-gradient)"/><polygon id="_Ritaglio_4" data-name="&lt;Ritaglio&gt;" points="74.2 98.13 1.28 195.61 145.69 195.61 109.94 146.87 74.2 98.13" style="fill:none;stroke:#231f20;stroke-miterlimit:10;stroke-width:1.284523257866513px"/><polygon id="_Ritaglio_5" data-name="&lt;Ritaglio&gt;" points="74.2 98.13 109.94 146.87 109.94 49.38 74.2 98.13" style="fill:#d1d3d4"/><polygon id="_Ritaglio_6" data-name="&lt;Ritaglio&gt;" points="74.2 98.13 109.94 146.87 109.94 49.38 74.2 98.13" style="fill:none;stroke:#231f20;stroke-miterlimit:10;stroke-width:1.284523257866513px"/><polygon id="_Ritaglio_7" data-name="&lt;Ritaglio&gt;" points="181.43 146.87 217.18 98.13 145.69 98.13 181.43 146.87" style="fill:#bcbec0"/><polygon id="_Ritaglio_8" data-name="&lt;Ritaglio&gt;" points="181.43 146.87 217.18 98.13 145.69 98.13 181.43 146.87" style="fill:none;stroke:#231f20;stroke-linejoin:round;stroke-width:1.284523257866513px"/><polygon id="_Ritaglio_9" data-name="&lt;Ritaglio&gt;" points="217.18 98.13 145.69 0.64 145.69 98.13 217.18 98.13" style="fill:#808285"/><polygon id="_Ritaglio_10" data-name="&lt;Ritaglio&gt;" points="217.18 98.13 145.69 0.64 145.69 98.13 217.18 98.13" style="fill:none;stroke:#231f20;stroke-linejoin:round;stroke-width:1.284523257866513px"/><polygon id="_Ritaglio_11" data-name="&lt;Ritaglio&gt;" points="109.94 146.87 145.69 98.13 145.69 0.64 109.94 49.38 109.94 146.87" style="fill:#a7a9ac"/><polygon id="_Ritaglio_12" data-name="&lt;Ritaglio&gt;" points="109.94 146.87 145.69 98.13 145.69 0.64 109.94 49.38 109.94 146.87" style="fill:none;stroke:#231f20;stroke-linejoin:round;stroke-width:1.284523257866513px"/><polygon id="_Ritaglio_13" data-name="&lt;Ritaglio&gt;" points="145.69 98.13 109.94 146.87 145.69 195.61 181.43 146.87 145.69 98.13" style="fill:#5d5d5d;mix-blend-mode:color"/><polygon points="131.76 155.4 137.35 147.12 131.76 143.8 131.71 155.3 131.76 155.4" style="fill:#a30c1e"/><polygon points="131.76 155.4 139.82 152.76 137.35 147.12 131.76 155.4 131.76 155.4" style="fill:#be1e2d"/><polygon points="131.71 155.43 131.69 155.42 123.49 158.11 127.14 164.97 131.71 155.51 131.71 155.43" style="fill:#ed1c24"/><polygon points="131.74 155.44 131.71 155.51 131.66 166.51 136.94 164.47 131.8 155.47 131.74 155.44" style="fill:#ed1c24"/><polygon points="136.94 164.47 139.82 158.83 131.8 155.47 136.94 164.47" style="fill:#a30c1e"/><polygon points="131.76 155.4 131.8 155.47 139.82 158.83 139.82 152.76 131.76 155.4" style="fill:#ed1c24"/><polygon points="131.76 143.8 126.89 146.24 131.71 155.3 131.76 143.8" style="fill:#ed1c24"/><polygon points="131.71 155.41 131.71 155.3 126.89 146.24 123.49 151.98 131.69 155.42 131.71 155.41" style="fill:#be1e2d"/><polygon points="127.14 164.97 131.66 166.51 131.71 155.51 127.14 164.97" style="fill:#be1e2d"/><polygon points="123.49 151.98 123.49 158.11 131.69 155.42 123.49 151.98" style="fill:#a30c1e"/><polygon points="156.86 156.7 162.45 148.42 156.86 145.11 156.81 156.6 156.86 156.7" style="fill:#a30c1e"/><polygon points="156.86 156.7 164.92 154.06 162.45 148.42 156.86 156.7 156.86 156.7" style="fill:#be1e2d"/><polygon points="156.81 156.73 156.79 156.72 148.59 159.41 152.24 166.27 156.81 156.81 156.81 156.73" style="fill:#ed1c24"/><polygon points="156.84 156.75 156.81 156.81 156.76 167.82 162.04 165.77 156.9 156.77 156.84 156.75" style="fill:#ed1c24"/><polygon points="162.04 165.77 164.92 160.14 156.9 156.77 162.04 165.77" style="fill:#a30c1e"/><polygon points="156.86 156.7 156.9 156.77 164.92 160.14 164.92 154.06 156.86 156.7" style="fill:#ed1c24"/><polygon points="156.86 145.11 152 147.54 156.81 156.6 156.86 145.11" style="fill:#ed1c24"/><polygon points="156.81 156.72 156.81 156.6 152 147.54 148.59 153.29 156.79 156.72 156.81 156.72" style="fill:#be1e2d"/><polygon points="152.24 166.27 156.76 167.82 156.81 156.81 152.24 166.27" style="fill:#be1e2d"/><polygon points="148.59 153.29 148.59 159.41 156.79 156.72 148.59 153.29" style="fill:#a30c1e"/><polygon points="143.11 133.92 142.32 139.05 147.24 137.59 143.11 133.92" style="fill:#ed1c24"/><polygon points="142.32 139.05 142.32 139.05 144.44 142.18 147.24 137.59 142.32 139.05" style="fill:#be1e2d"/><polygon points="152.84 136.08 151.44 133.11 150.62 129.16 148.08 136.12 152.84 136.08" style="fill:#be1e2d"/><polygon points="141.95 128.41 143.11 133.92 145.33 131.63 141.95 128.41" style="fill:#be1e2d"/><polygon points="147.24 137.59 144.44 142.18 144.44 142.18 148.2 139.71 147.24 137.59" style="fill:#a30c1e"/><polygon points="141.95 128.41 141.95 128.41 141.95 128.41 141.95 128.41" style="fill:none;stroke:#fff;stroke-miterlimit:10;stroke-width:1.284523257866513px"/><polygon points="148.2 139.71 144.44 142.18 144.67 143.8 146.53 143.65 147.02 142.41 148.2 139.71" style="fill:#ed1c24"/><polygon points="151.61 141.1 151.13 141.84 147.02 142.41 146.53 143.65 151.97 143.22 151.61 141.1" style="fill:#be1e2d"/><polygon points="151.61 141.1 152.84 136.08 148.08 136.12 151.61 141.1" style="fill:#a30c1e"/><polygon points="148.08 136.12 150.62 129.16 147.02 131.96 148.08 136.12" style="fill:#ed1c24"/><polygon points="144.97 165.84 145.79 164.59 143.83 162.49 138.93 162.55 144.97 165.84" style="fill:#a30c1e"/><polygon points="150.62 129.16 151.49 127.65 150.77 122.44 147.02 131.96 150.62 129.16" style="fill:#be1e2d"/><polygon points="143.83 162.49 144.68 160.15 144.1 157.88 138.93 162.55 143.83 162.49" style="fill:#ed1c24"/><polygon points="139.66 160.05 138.93 162.55 144.1 157.88 140.43 154.45 139.66 160.05" style="fill:#be1e2d"/><polygon points="152.79 148.13 154.05 147.47 153.09 143.32 152.26 146.02 152.79 148.13" style="fill:#ed1c24"/><polygon points="154.82 137.66 152.84 136.08 151.61 141.1 154.82 137.66" style="fill:#ed1c24"/><polygon points="156.51 126.53 157.24 124.55 156.85 121.33 153.76 117.83 155.69 126 156.51 126.53" style="fill:#ed1c24"/><polygon points="152.31 129.1 152.17 121.39 150.77 122.44 151.49 127.65 152.31 129.1" style="fill:#ed1c24"/><polygon points="142.32 139.05 142.32 139.05 142.32 139.05 142.32 139.05" style="fill:none;stroke:#fff;stroke-miterlimit:10;stroke-width:1.284523257866513px"/><polygon points="154.2 128.44 154.82 126.72 155.69 126 152.17 121.39 152.31 129.1 154.2 128.44" style="fill:#a30c1e"/><polygon points="153.76 117.83 152.17 121.39 155.69 126 153.76 117.83" style="fill:#be1e2d"/><polygon points="140.67 144.64 138.06 147.8 144.97 146.82 140.67 144.64" style="fill:#ed1c24"/><polygon points="144.97 146.82 138.06 147.8 143.83 149.59 144.97 146.82" style="fill:#a30c1e"/><polygon points="142.32 139.05 138.35 140.23 140.67 144.64 142.32 139.05 142.32 139.05" style="fill:#ed1c24"/><polygon points="144.44 142.18 142.32 139.05 140.67 144.64 144.44 142.18 144.44 142.18" style="fill:#a30c1e"/><polygon points="144.67 143.8 144.44 142.18 140.67 144.64 144.97 146.82 144.67 143.8" style="fill:#be1e2d"/><polygon points="138.06 147.8 140.34 151.29 143.83 149.59 138.06 147.8" style="fill:#be1e2d"/><polygon points="158.11 138.71 157 137.13 154.82 137.66 157.09 142.07 158.59 142.73 158.59 140.75 158.11 138.71" style="fill:#a30c1e"/><polygon points="153.09 143.32 156.76 143.65 157.09 142.07 154.82 137.66 153.09 143.32" style="fill:#be1e2d"/><polygon points="146.53 152.13 144.1 157.88 148.69 151.22 151.25 145.19 146.53 152.13" style="fill:#ed1c24"/><polygon points="151.25 145.19 148.69 151.22 152.26 146.02 151.25 145.19" style="fill:#be1e2d"/><polygon points="146.53 152.13 143.19 157.03 144.1 157.88 146.53 152.13" style="fill:#a30c1e"/><polygon points="143.83 149.59 140.34 151.29 140.43 154.45 142.5 156.38 143.35 152.13 143.83 149.59" style="fill:#ed1c24"/><polygon points="151.61 141.1 151.97 143.22 151.25 145.19 152.26 146.02 153.09 143.32 154.82 137.66 151.61 141.1" style="fill:#a30c1e"/><polygon points="141.95 128.41 143.23 122.51 138.93 125.54 141.95 128.41 141.95 128.41" style="fill:#ed1c24"/><polygon points="150.77 122.44 148.25 121.39 147.02 131.96 150.77 122.44" style="fill:#a30c1e"/><polygon points="141.95 128.41 145.33 131.63 143.23 122.51 141.95 128.41 141.95 128.41" style="fill:#a30c1e"/><polygon points="148.25 121.39 143.23 122.51 145.33 131.63 148.25 121.39" style="fill:#be1e2d"/><polygon points="138.93 125.54 135.79 131.14 141.95 128.41 138.93 125.54" style="fill:#be1e2d"/><polygon points="147.02 131.96 148.25 121.39 145.33 131.63 147.02 131.96" style="fill:#ed1c24"/><polygon points="143.11 133.92 135.79 131.14 139.06 135.24 143.11 133.92" style="fill:#ed1c24"/><polygon points="135.79 131.14 135.46 136.41 139.06 135.24 135.79 131.14" style="fill:#be1e2d"/><polygon points="142.32 139.05 143.11 133.92 139.06 135.24 139.06 135.24 139.06 135.24 135.46 136.41 142.32 139.05 142.32 139.05" style="fill:#a30c1e"/><polygon points="135.46 136.41 138.35 140.23 142.32 139.05 135.46 136.41" style="fill:#be1e2d"/><polygon points="141.95 128.41 141.95 128.41 135.79 131.14 143.11 133.92 141.95 128.41" style="fill:#a30c1e"/><polygon points="196.51 178.93 198.96 175.29 196.51 173.84 196.49 178.89 196.51 178.93" style="fill:#a30c1e"/><polygon points="196.51 178.93 200.05 177.77 198.96 175.29 196.51 178.93 196.51 178.93" style="fill:#be1e2d"/><polygon points="196.49 178.94 196.48 178.94 192.88 180.12 194.48 183.13 196.49 178.98 196.49 178.94" style="fill:#ed1c24"/><polygon points="196.5 178.95 196.49 178.98 196.46 183.81 198.79 182.91 196.53 178.96 196.5 178.95" style="fill:#ed1c24"/><polygon points="198.79 182.91 200.05 180.44 196.53 178.96 198.79 182.91" style="fill:#a30c1e"/><polygon points="196.51 178.93 196.53 178.96 200.05 180.44 200.05 177.77 196.51 178.93" style="fill:#ed1c24"/><polygon points="196.51 173.84 194.37 174.9 196.49 178.89 196.51 173.84" style="fill:#ed1c24"/><polygon points="196.49 178.94 196.49 178.89 194.37 174.9 192.88 177.43 196.48 178.94 196.49 178.94" style="fill:#be1e2d"/><polygon points="194.48 183.13 196.46 183.81 196.49 178.98 194.48 183.13" style="fill:#be1e2d"/><polygon points="192.88 177.43 192.88 180.12 196.48 178.94 192.88 177.43" style="fill:#a30c1e"/><polygon points="230.17 178.55 232.63 174.92 230.17 173.46 230.15 178.51 230.17 178.55" style="fill:#a30c1e"/><polygon points="230.17 178.55 233.71 177.39 232.63 174.92 230.17 178.55 230.17 178.55" style="fill:#be1e2d"/><polygon points="230.15 178.57 230.14 178.56 226.54 179.74 228.14 182.76 230.15 178.6 230.15 178.57" style="fill:#ed1c24"/><polygon points="230.16 178.57 230.15 178.6 230.13 183.44 232.45 182.54 230.19 178.58 230.16 178.57" style="fill:#ed1c24"/><polygon points="232.45 182.54 233.71 180.06 230.19 178.58 232.45 182.54" style="fill:#a30c1e"/><polygon points="230.17 178.55 230.19 178.58 233.71 180.06 233.71 177.39 230.17 178.55" style="fill:#ed1c24"/><polygon points="230.17 173.46 228.04 174.53 230.15 178.51 230.17 173.46" style="fill:#ed1c24"/><polygon points="230.15 178.56 230.15 178.51 228.04 174.53 226.54 177.05 230.14 178.56 230.15 178.56" style="fill:#be1e2d"/><polygon points="228.14 182.76 230.13 183.44 230.15 178.6 228.14 182.76" style="fill:#be1e2d"/><polygon points="226.54 177.05 226.54 179.74 230.14 178.56 226.54 177.05" style="fill:#a30c1e"/><polygon points="237.84 178.55 240.3 174.92 237.84 173.46 237.82 178.51 237.84 178.55" style="fill:#a30c1e"/><polygon points="237.84 178.55 241.39 177.39 240.3 174.92 237.84 178.55 237.84 178.55" style="fill:#be1e2d"/><polygon points="237.82 178.57 237.81 178.56 234.21 179.74 235.82 182.76 237.82 178.6 237.82 178.57" style="fill:#ed1c24"/><polygon points="237.84 178.57 237.82 178.6 237.8 183.44 240.12 182.54 237.86 178.58 237.84 178.57" style="fill:#ed1c24"/><polygon points="240.12 182.54 241.39 180.06 237.86 178.58 240.12 182.54" style="fill:#a30c1e"/><polygon points="237.84 178.55 237.86 178.58 241.39 180.06 241.39 177.39 237.84 178.55" style="fill:#ed1c24"/><polygon points="237.84 173.46 235.71 174.53 237.82 178.51 237.84 173.46" style="fill:#ed1c24"/><polygon points="237.82 178.56 237.82 178.51 235.71 174.53 234.21 177.05 237.81 178.56 237.82 178.56" style="fill:#be1e2d"/><polygon points="235.82 182.76 237.8 183.44 237.82 178.6 235.82 182.76" style="fill:#be1e2d"/><polygon points="234.21 177.05 234.21 179.74 237.81 178.56 234.21 177.05" style="fill:#a30c1e"/><polygon points="205.03 163.87 206.27 170.75 209.16 155.48 205.03 163.87" style="fill:#ed1c24"/><polygon points="191.66 164.13 186.94 155.83 185.53 157.71 185.65 158.21 186.01 160.88 191.66 164.13" style="fill:#ed1c24"/><polygon points="187.52 172.09 187.52 172.09 187.52 172.09 184.44 164.68 183.69 172.76 183.14 175.34 188.77 175.09 187.52 172.09" style="fill:#ed1c24"/><polygon points="249.93 166.45 250.48 156.69 249.33 155.33 247.72 162.45 249.93 166.45" style="fill:#ed1c24"/><polygon points="242.56 167.08 242.56 167.08 243.77 155.33 237.64 167.49 242.56 167.08" style="fill:#ed1c24"/><polygon points="226.39 163.11 231.44 164.7 232.97 155.33 226.39 163.11 226.39 163.11" style="fill:#ed1c24"/><polygon points="223.38 155.39 218.61 162.5 218.61 162.5 222.13 169.51 223.38 155.39" style="fill:#ed1c24"/><polygon points="226.39 163.11 227.43 173.87 230.13 172.72 226.39 163.11 226.39 163.11" style="fill:#ed1c24"/><polygon points="219.88 175.09 219.84 175.15 225.93 180.77 222.13 169.51 216.95 172.49 219.84 175.15 219.88 175.09" style="fill:#ed1c24"/><polygon points="213.83 169.6 216.94 172.48 218.61 162.5 213.83 169.6" style="fill:#ed1c24"/><polygon points="213.1 180.77 216.62 180.77 213.83 169.6 213.1 180.77" style="fill:#ed1c24"/><polygon points="242.56 167.08 242.56 167.08 241.65 176.9 241.95 180.25 243.45 180.25 246.58 171.68 242.56 167.08" style="fill:#ed1c24"/><polygon points="231.55 164.73 238.11 172.81 240.09 173.87 237.64 167.49 231.55 164.73" style="fill:#ed1c24"/><polygon points="200.77 161.78 201.87 155.6 193.98 155.72 200.77 161.78" style="fill:#ed1c24"/><polygon points="214.76 155.39 209.18 155.48 211.12 168.05 214.76 155.39" style="fill:#ed1c24"/><polygon points="196.46 172.97 198.62 173.87 195.34 165.23 196.46 172.97" style="fill:#ed1c24"/><polygon points="188.77 175.09 193.34 174.69 191.66 164.13 188.77 175.09" style="fill:#ed1c24"/><polygon points="208.07 180.77 213.1 180.77 206.27 170.75 208.07 180.77" style="fill:#ed1c24"/><polygon points="199.49 169.03 199.49 169.03 200.3 176.98 205.03 163.87 199.49 169.03" style="fill:#ed1c24"/><polygon points="213.83 169.6 213.83 169.6 214.76 155.39 214.76 155.39 211.12 168.05 213.83 169.6" style="fill:#be1e2d"/><polygon points="187.52 172.09 187.52 172.09 191.66 164.13 186.01 160.88 187.52 172.09" style="fill:#be1e2d"/><polygon points="242.56 167.08 249.93 166.47 249.93 166.45 247.72 162.45 247.72 162.45 247.72 162.45 243.77 155.33 242.56 167.08 242.56 167.08" style="fill:#be1e2d"/><polygon points="231.55 164.73 237.64 167.49 232.97 155.33 231.44 164.7 231.55 164.73" style="fill:#be1e2d"/><polygon points="238.64 155.33 237.64 167.49 243.77 155.33 238.64 155.33" style="fill:#be1e2d"/><polygon points="214.76 155.39 218.61 162.5 223.36 155.33 218.91 155.33 214.76 155.39" style="fill:#be1e2d"/><polygon points="232.97 155.33 223.4 155.33 226.39 163.11 232.97 155.33" style="fill:#be1e2d"/><polygon points="222.13 169.51 225.93 177.06 227.43 173.87 226.39 163.11 222.13 169.51" style="fill:#be1e2d"/><polygon points="213.83 169.6 213.83 169.6 216.62 180.77 219.84 175.15 213.83 169.6" style="fill:#be1e2d"/><polygon points="231.44 164.7 230.13 172.72 232.41 173.95 231.55 164.73 231.44 164.7" style="fill:#be1e2d"/><polygon points="243.45 180.25 249.93 175.51 246.58 171.68 243.45 180.25" style="fill:#be1e2d"/><polygon points="235.65 173.46 238.11 172.81 231.55 164.73 235.65 173.46" style="fill:#be1e2d"/><polygon points="237.64 167.49 237.64 167.49 240.09 173.87 241.65 176.9 242.56 167.08 237.64 167.49" style="fill:#be1e2d"/><polygon points="198.62 173.87 199.49 169.03 199.49 169.03 199.49 169.03 200.77 161.79 195.32 165.15 198.62 173.87" style="fill:#be1e2d"/><polygon points="205.03 163.87 209.08 155.48 201.89 155.6 205.03 163.87" style="fill:#be1e2d"/><polygon points="183.14 175.34 182.43 176.57 183.2 179.27 185 180.77 188.77 175.09 183.14 175.34" style="fill:#be1e2d"/><polygon points="191.66 164.13 196.46 172.97 193.95 155.72 191.66 164.13" style="fill:#be1e2d"/><polygon points="192.38 180.77 192.56 177.47 193.34 174.69 188.77 175.09 192.38 180.77" style="fill:#be1e2d"/><polygon points="206.27 170.75 206.27 170.75 213.1 180.77 211.12 168.05 206.27 170.75" style="fill:#be1e2d"/><polygon points="200.3 176.98 200.72 180.77 206.27 170.75 200.3 176.98" style="fill:#be1e2d"/><polygon points="213.83 169.6 218.61 162.5 214.76 155.39 214.76 155.39 213.83 169.6" style="fill:#a30c1e"/><polygon points="186.01 160.88 186.01 160.88 186.01 160.88 185.65 158.21 184.44 164.68 187.52 172.09 186.01 160.88" style="fill:#a30c1e"/><polygon points="188.77 175.09 191.66 164.13 187.52 172.09 188.77 175.09" style="fill:#a30c1e"/><polygon points="199.49 169.03 205.03 163.87 201.88 155.6 199.49 169.03" style="fill:#a30c1e"/><polygon points="206.27 170.75 206.27 170.75 211.12 168.05 209.16 155.48 206.27 170.75" style="fill:#a30c1e"/><polygon points="232.97 155.33 237.64 167.49 238.64 155.33 232.97 155.33" style="fill:#a30c1e"/><polygon points="249.33 155.33 243.77 155.33 247.72 162.45 249.33 155.33" style="fill:#a30c1e"/><polygon points="218.61 162.5 216.96 172.49 222.13 169.51 222.13 169.51 218.61 162.5" style="fill:#a30c1e"/><polygon points="223.38 155.39 222.13 169.51 222.13 169.51 226.39 163.11 226.39 163.11 223.38 155.39" style="fill:#a30c1e"/><polygon points="226.39 163.11 230.13 172.72 231.44 164.7 226.39 163.11" style="fill:#a30c1e"/><polygon points="222.13 169.51 225.93 180.77 225.93 177.06 222.13 169.51 222.13 169.51" style="fill:#a30c1e"/><polygon points="216.62 180.77 225.93 180.77 219.84 175.15 216.62 180.77" style="fill:#a30c1e"/><polygon points="232.41 173.95 233.91 176.41 235.65 173.46 231.55 164.73 232.41 173.95" style="fill:#a30c1e"/><polygon points="249.93 166.47 242.56 167.08 246.58 171.68 246.58 171.68 246.58 171.68 249.93 175.51 249.81 171.99 249.81 168.63 249.93 166.47" style="fill:#a30c1e"/><polygon points="191.66 164.13 193.95 155.72 186.94 155.83 191.66 164.13" style="fill:#a30c1e"/><polygon points="193.95 155.72 195.32 165.12 200.78 161.79 193.95 155.72" style="fill:#a30c1e"/><polygon points="193.34 174.69 196.46 172.97 191.66 164.13 193.34 174.69" style="fill:#a30c1e"/><polygon points="185 180.77 192.38 180.77 188.77 175.09 185 180.77" style="fill:#a30c1e"/><polygon points="206.27 170.75 200.72 180.77 208.07 180.77 206.27 170.75 206.27 170.75" style="fill:#a30c1e"/><polygon points="213.83 169.6 211.12 168.05 211.12 168.05 213.1 180.77 213.83 169.6 213.83 169.6" style="fill:#a30c1e"/><polygon points="206.27 170.75 205.03 163.87 200.3 176.98 206.27 170.75 206.27 170.75" style="fill:#a30c1e"/><polygon points="198.62 173.87 200.3 176.98 199.49 169.03 198.62 173.87" style="fill:#a30c1e"/><polygon points="67.13 180.19 70.55 167.12 62.89 167.46 67.13 180.19" style="fill:#a30c1e"/><polygon points="79.45 156.36 67.13 154.4 70.55 167.12 79.45 156.36" style="fill:#a30c1e"/><polygon points="67.13 154.4 55.45 155.92 62.89 167.46 67.13 154.4" style="fill:#ed1c24"/><polygon points="55.45 155.92 54.97 170.53 62.89 167.46 55.45 155.92" style="fill:#a30c1e"/><polygon points="70.55 167.12 67.13 154.4 62.89 167.46 70.55 167.12" style="fill:#be1e2d"/><polygon points="33.02 170.29 36.2 180.06 47.28 161.9 33.02 170.29" style="fill:#ed1c24"/><polygon points="77.03 180.33 84.36 177.9 70.55 167.12 77.03 180.33" style="fill:#a30c1e"/><polygon points="33.64 163.75 33.02 170.29 47.28 161.9 33.64 163.75" style="fill:#be1e2d"/><polygon points="47.28 161.9 43.86 175.14 46.4 170.13 55.45 155.92 47.28 161.9" style="fill:#ed1c24"/><polygon points="46.4 170.13 50.56 169.13 54.97 170.53 55.45 155.92 46.4 170.13" style="fill:#be1e2d"/><polygon points="36.2 180.06 43.07 180.06 43.86 175.14 47.28 161.9 36.2 180.06" style="fill:#a30c1e"/><polygon points="99.02 163.64 103.24 170.26 112.4 168.59 99.02 163.64" style="fill:#ed1c24"/><polygon points="103.24 170.26 105.42 175.07 112.4 168.59 103.24 170.26" style="fill:#a30c1e"/><polygon points="54.97 170.53 57.01 175.36 57.58 180.06 62.89 167.46 54.97 170.53" style="fill:#ed1c24"/><polygon points="98.49 168.42 103.24 170.26 99.02 163.64 98.49 168.42" style="fill:#a30c1e"/><polygon points="112.4 172.58 112.4 168.59 109.07 180.52 113.48 174.05 112.4 172.58" style="fill:#ed1c24"/><polygon points="105.42 175.07 105.64 180.52 109.07 180.52 112.4 168.59 105.42 175.07" style="fill:#be1e2d"/><polygon points="94.04 170.26 98.49 168.42 99.02 163.64 94.04 170.26" style="fill:#be1e2d"/><polygon points="84.36 177.9 91.7 175.47 79.45 156.36 84.36 177.9" style="fill:#a30c1e"/><polygon points="57.58 180.06 67.12 180.19 62.89 167.46 57.58 180.06" style="fill:#be1e2d"/><polygon points="67.14 180.19 77.03 180.33 70.55 167.12 67.14 180.19" style="fill:#ed1c24"/><polygon points="91.7 175.47 84.36 177.9 77.03 180.33 91.21 180.52 91.7 175.47" style="fill:#ed1c24"/><polygon points="90.33 163.64 94.04 170.26 99.02 163.64 90.33 163.64" style="fill:#ed1c24"/><polygon points="79.45 156.36 91.7 175.47 90.33 163.64 79.45 156.36" style="fill:#be1e2d"/><polygon points="91.7 175.47 94.04 170.26 90.33 163.64 91.7 175.47" style="fill:#a30c1e"/><polygon points="50.57 178.55 54.64 172.51 50.57 170.09 50.53 178.48 50.57 178.55" style="fill:#a30c1e"/><polygon points="50.57 178.55 56.45 176.62 54.64 172.51 50.57 178.55 50.57 178.55" style="fill:#be1e2d"/><polygon points="50.53 178.57 50.52 178.56 44.54 180.52 47.2 185.52 50.53 178.63 50.53 178.57" style="fill:#ed1c24"/><polygon points="50.55 178.58 50.53 178.63 50.49 186.65 54.35 185.16 50.6 178.6 50.55 178.58" style="fill:#ed1c24"/><polygon points="54.35 185.16 56.45 181.05 50.6 178.6 54.35 185.16" style="fill:#a30c1e"/><polygon points="50.57 178.55 50.6 178.6 56.45 181.05 56.45 176.62 50.57 178.55" style="fill:#ed1c24"/><polygon points="50.57 170.09 47.02 171.87 50.53 178.48 50.57 170.09" style="fill:#ed1c24"/><polygon points="50.53 178.56 50.53 178.48 47.02 171.87 44.54 176.06 50.52 178.56 50.53 178.56" style="fill:#be1e2d"/><polygon points="47.2 185.52 50.49 186.65 50.53 178.63 47.2 185.52" style="fill:#be1e2d"/><polygon points="44.54 176.06 44.54 180.52 50.52 178.56 44.54 176.06" style="fill:#a30c1e"/><polygon points="98.56 178.55 102.64 172.51 98.56 170.09 98.53 178.48 98.56 178.55" style="fill:#a30c1e"/><polygon points="98.56 178.55 104.44 176.62 102.64 172.51 98.56 178.55 98.56 178.55" style="fill:#be1e2d"/><polygon points="98.53 178.57 98.51 178.56 92.54 180.52 95.2 185.52 98.53 178.63 98.53 178.57" style="fill:#ed1c24"/><polygon points="98.55 178.58 98.53 178.63 98.49 186.65 102.35 185.16 98.59 178.6 98.55 178.58" style="fill:#ed1c24"/><polygon points="102.35 185.16 104.44 181.05 98.59 178.6 102.35 185.16" style="fill:#a30c1e"/><polygon points="98.56 178.55 98.59 178.6 104.44 181.05 104.44 176.62 98.56 178.55" style="fill:#ed1c24"/><polygon points="98.56 170.09 95.02 171.87 98.53 178.48 98.56 170.09" style="fill:#ed1c24"/><polygon points="98.53 178.56 98.53 178.48 95.02 171.87 92.54 176.06 98.51 178.56 98.53 178.56" style="fill:#be1e2d"/><polygon points="95.2 185.52 98.49 186.65 98.53 178.63 95.2 185.52" style="fill:#be1e2d"/><polygon points="92.54 176.06 92.54 180.52 98.51 178.56 92.54 176.06" style="fill:#a30c1e"/><polygon points="79.45 156.36 70.55 167.12 82.74 170.76 79.45 156.36" style="fill:#ed1c24"/><polygon points="82.74 170.76 70.55 167.12 84.36 177.9 82.74 170.76" style="fill:#be1e2d"/></g></g></svg>